<?xml version="1.0" encoding="UTF-8" standalone="no"?>
<!-- Created with Inkscape (http://www.inkscape.org/) -->

<svg
   width="96.01886mm"
   height="96.355118mm"
   viewBox="0 0 96.01886 96.355118"
   version="1.1"
   id="svg5"
   xml:space="preserve"
   inkscape:version="1.2.1 (9c6d41e410, 2022-07-14)"
   sodipodi:docname="logo.svg"
   xmlns:inkscape="http://www.inkscape.org/namespaces/inkscape"
   xmlns:sodipodi="http://sodipodi.sourceforge.net/DTD/sodipodi-0.dtd"
   xmlns="http://www.w3.org/2000/svg"
   xmlns:svg="http://www.w3.org/2000/svg"><sodipodi:namedview
     id="namedview7"
     pagecolor="#ffffff"
     bordercolor="#666666"
     borderopacity="1.0"
     inkscape:showpageshadow="2"
     inkscape:pageopacity="0.0"
     inkscape:pagecheckerboard="0"
     inkscape:deskcolor="#d1d1d1"
     inkscape:document-units="mm"
     showgrid="false"
     inkscape:zoom="1.5981902"
     inkscape:cx="202.1036"
     inkscape:cy="193.65655"
     inkscape:window-width="2542"
     inkscape:window-height="1014"
     inkscape:window-x="4"
     inkscape:window-y="57"
     inkscape:window-maximized="1"
     inkscape:current-layer="layer1" /><defs
     id="defs2" /><g
     inkscape:label="Camada 1"
     inkscape:groupmode="layer"
     id="layer1"
     transform="translate(-58.773916,-79.810209)"><path
       style="fill:none;stroke:#2f9cec;stroke-width:0.264583"
       d="m 59.085273,108.21206 c -0.268234,-2.40136 0.104806,-7.92293 0.104806,-10.349164 0,-5.198275 -0.850688,-11.001645 3.251571,-14.964885 4.18666,-4.04474 11.259502,-2.7622 16.592178,-2.7622 h 41.010422 17.19792 c 3.45175,0 7.00326,-0.37566 10.31875,0.64635 2.26827,0.69921 4.35795,2.46944 5.4565,4.64532 0.88292,1.74863 1.05701,3.6269 1.31048,5.55625 0.67495,5.138995 0.11219,10.691279 0.11219,15.874989 v 28.31042 13.75833 c 0,1.43377 0.0442,2.45555 -0.0201,3.70941 -0.0574,1.1176 0.0201,3.10996 0.0201,4.49267 0,4.00182 0.37676,8.48678 -1.18137,12.17083 -2.30214,5.44407 -8.17774,6.08542 -13.37072,6.08542 -2.44581,0 -5.26944,0.35031 -7.40807,-0.091 -6.4381,-8.32589 -14.94826,-17.68407 -20.94945,-25.30898 -2.08514,-2.54163 -3.00762,-3.58108 -4.52252,-5.29193 -3.05409,-3.53854 -6.20104,-7.248 -9.209881,-10.84765 -2.300818,-2.7522 -4.660372,-5.45465 -6.96648,-8.20208 -1.184011,-1.4105 -2.325423,-3.10171 -4.124854,-3.70708 -3.951552,-1.32927 -6.162146,1.45388 -8.487833,4.23624 -4.226983,5.05672 -8.550275,10.03327 -12.787444,15.08125 -1.471251,2.35027 -6.194962,5.93104 -6.241389,8.20208 -7.9e-5,1.19328 0,2.70643 0,3.96875 0,7.52396 -1.779561,17.09023 6.35,20.95897 4.369329,2.07936 10.9218,1.47064 15.687958,1.49154 l 35.656303,0.15635 c 4.63203,0.0203 12.42731,-0.3646 15.61499,-0.72845 M 110.25466,96.656416 c 1.55205,-0.24924 3.34936,-0.0609 4.7625,0.55377 6.83023,2.971274 5.21098,13.674194 -1.85208,14.853964 -1.65127,0.27596 -3.29168,0.20267 -4.7625,-0.51541 -2.81014,-1.3716 -4.71911,-4.13438 -4.64212,-7.33583 0.091,-3.77851 2.79877,-6.963034 6.4942,-7.556494 m -51.288539,18.632504 -0.05992,6.03723 m 50.462709,26.07225 c 1.66608,-1.52056 3.51518,-3.3538 5.40483,-5.61466 2.37437,-2.8403 4.81226,-5.62742 7.18768,-8.46667 1.24037,-1.48246 2.44899,-3.46789 4.16931,-4.38097 1.29381,-0.68686 2.77413,-0.76306 4.23225,-0.42836 2.44927,0.56277 4.51036,3.73301 6.11984,5.60308 3.31814,3.85525 6.568,7.76976 9.86655,11.64167 1.338,1.5703 3.14142,3.88805 4.49898,5.25647 0.8869,0.89377 2.7741,1.36009 3.61203,1.63552 M 59.190079,128.81914 c 0,5.06888 -0.251875,16.75977 -0.02252,20.33916"
       id="path181"
       sodipodi:nodetypes="cscscssccscscscscccccccccscsscccccccccccccccccccc" /></g></svg>
